<svg width="150" height="150" viewBox="0 0 150 150" fill="none" xmlns="http://www.w3.org/2000/svg">
<path d="M140.081 28.8094L78.4781 138.966C78.1888 139.484 77.767 139.916 77.2559 140.217C76.7448 140.518 76.1627 140.678 75.5693 140.681C74.976 140.683 74.3926 140.528 73.8791 140.231C73.3656 139.933 72.9403 139.505 72.6469 138.989L9.825 28.8188C9.50915 28.266 9.35752 27.6346 9.38791 26.9986C9.41829 26.3627 9.62943 25.7486 9.99654 25.2285C10.3636 24.7083 10.8715 24.3037 11.4605 24.062C12.0495 23.8203 12.6952 23.7517 13.3219 23.8641L74.9906 34.8891C75.3826 34.9611 75.7845 34.9611 76.1766 34.8891L136.556 23.8828C137.18 23.7688 137.824 23.8345 138.413 24.0724C139.001 24.3103 139.509 24.7105 139.879 25.2264C140.248 25.7423 140.464 26.3526 140.499 26.9862C140.535 27.6197 140.39 28.2551 140.081 28.8094Z" fill="url(#paint0_linear_1_3)"/>
<path d="M104.362 9.40782L58.7812 18.3375C58.4174 18.411 58.088 18.6024 57.8439 18.882C57.5999 19.1617 57.4548 19.514 57.4312 19.8844L54.6281 67.2469C54.6126 67.5067 54.658 67.7666 54.7606 68.0058C54.8631 68.245 55.0201 68.457 55.219 68.625C55.4178 68.7929 55.6531 68.9121 55.9062 68.9732C56.1592 69.0342 56.423 69.0354 56.6765 68.9766L69.3656 66.0469C69.639 65.9837 69.9238 65.9903 70.194 66.066C70.4641 66.1417 70.7109 66.2842 70.9116 66.4802C71.1124 66.6763 71.2606 66.9196 71.3426 67.1879C71.4247 67.4562 71.4379 67.7409 71.3812 68.0156L67.6125 86.4797C67.5543 86.7639 67.5711 87.0584 67.6611 87.3343C67.7511 87.6101 67.9113 87.8578 68.1259 88.053C68.3405 88.2482 68.6022 88.3843 68.8853 88.4479C69.1684 88.5115 69.4631 88.5004 69.7406 88.4156L77.5781 86.0344C77.856 85.9493 78.1513 85.9381 78.4349 86.0019C78.7185 86.0657 78.9806 86.2022 79.1954 86.3981C79.4101 86.5939 79.5702 86.8423 79.6598 87.1188C79.7494 87.3953 79.7654 87.6904 79.7062 87.975L73.7109 116.977C73.3359 118.791 75.75 119.78 76.7578 118.228L77.4281 117.188L114.577 43.0547C114.716 42.7754 114.775 42.4626 114.746 42.1518C114.717 41.8409 114.601 41.5444 114.412 41.2957C114.224 41.047 113.969 40.856 113.678 40.7444C113.386 40.6328 113.069 40.605 112.762 40.6641L99.6984 43.1813C99.4172 43.2351 99.1269 43.2158 98.8552 43.1254C98.5836 43.035 98.3397 42.8763 98.1469 42.6647C97.954 42.4531 97.8187 42.1955 97.7539 41.9166C97.6891 41.6377 97.6969 41.3469 97.7765 41.0719L106.298 11.5125C106.379 11.2366 106.387 10.9447 106.321 10.6649C106.256 10.385 106.12 10.1267 105.926 9.91477C105.732 9.70284 105.487 9.54444 105.214 9.45483C104.941 9.36522 104.649 9.34741 104.367 9.40313" fill="url(#paint1_linear_1_3)"/>
<defs>
<linearGradient id="paint0_linear_1_3" x1="8.28993" y1="19.9259" x2="84.9548" y2="124.043" gradientUnits="userSpaceOnUse">
<stop stop-color="#41D1FF"/>
<stop offset="1" stop-color="#BD34FE"/>
</linearGradient>
<linearGradient id="paint1_linear_1_3" x1="71.4467" y1="11.8302" x2="85.3151" y2="106.965" gradientUnits="userSpaceOnUse">
<stop stop-color="#FFEA83"/>
<stop offset="0.083" stop-color="#FFDD35"/>
<stop offset="1" stop-color="#FFA800"/>
</linearGradient>
</defs>
</svg>
