<svg width="150" height="150" viewBox="0 0 150 150" fill="none" xmlns="http://www.w3.org/2000/svg">
<path fill-rule="evenodd" clip-rule="evenodd" d="M1.42853 65.8078C1.42853 66.6316 1.67111 67.1754 1.80704 67.7039C2.69298 71.141 4.59728 74.0906 6.85665 76.7813C10.0746 80.6156 14.0156 83.7024 18.0527 86.6051C21.5543 89.1223 25.1274 91.5832 28.643 94.0816C29.2465 94.5106 29.8172 95.0039 30.4723 95.5301C29.9086 95.8348 29.4399 96.1031 28.9524 96.3504C24.3129 98.7035 19.8492 101.341 15.7348 104.537C13.2551 106.464 10.8574 108.511 9.16408 111.186C6.43947 115.489 5.47501 120.074 7.50587 124.969C8.09884 126.398 9.00353 127.634 10.2797 128.546C10.6934 128.842 11.1574 129.135 11.6414 129.25C12.8813 129.541 14.1445 129.732 15.3996 129.963L18.9539 129.961C22.8844 129.611 26.4621 128.264 29.6953 126.033C34.7485 122.545 38.1527 117.87 39.6164 111.868C40.6805 107.507 40.7238 103.14 39.4699 98.7984C39.3495 98.3964 39.211 97.9999 39.0551 97.6102C38.9027 97.2199 38.7235 96.8402 38.5125 96.3539L46.5703 91.7203L46.691 91.8234C46.5445 92.3027 46.3887 92.7809 46.2563 93.2648C45.2988 96.7617 44.6625 100.32 44.891 103.949C45.1348 107.816 46.2141 111.436 48.4781 114.667C50.3086 117.28 54.6703 117.377 56.6156 114.755C57.3059 113.823 57.975 112.849 58.4778 111.81C59.7914 109.097 61.0078 106.336 62.2629 103.594L62.482 103.092C62.3918 104.391 62.2863 105.531 62.2383 106.672C62.1633 108.455 62.2676 110.227 62.877 111.922C63.3985 113.373 64.2856 114.457 65.9473 114.648C67.084 114.778 67.9899 114.258 68.8254 113.598C70.1195 112.575 71.1923 111.299 71.9789 109.849C74.2067 105.758 76.4942 101.692 78.5133 97.4977C80.6977 92.9613 82.6078 88.2926 84.6363 83.6789L84.9715 82.8609C85.4508 84.7441 85.7848 86.5887 86.4 88.3348C87.1149 90.3609 87.9996 92.3391 88.9629 94.2621C89.4188 95.1703 89.366 95.7598 88.7344 96.5215C86.0906 99.709 83.4926 102.935 80.8922 106.158C80.3168 106.869 79.7438 107.593 79.2645 108.37C78.9737 108.861 78.7825 109.404 78.702 109.969C78.6213 110.489 78.745 111.019 79.0472 111.45C79.3493 111.881 79.8064 112.178 80.3227 112.279C81.3647 112.502 82.4329 112.578 83.4961 112.505C87.1254 112.238 90.4207 110.964 93.334 108.805C97.1086 106.009 98.3203 102.193 97.4063 97.6711C97.159 96.4441 96.7219 95.2512 96.2965 94.0688C96.1055 93.5356 96.0926 93.1617 96.4406 92.6648C99.4582 88.3559 102.036 83.7844 104.434 79.1074C104.529 78.9234 104.626 78.7395 104.793 78.5426C105.57 82.5856 106.739 86.482 108.834 90.0176C107.766 91.0477 106.707 91.9817 105.75 93.0106C103.642 95.277 101.814 97.7379 100.86 100.739C100.45 102.033 100.134 103.348 100.317 104.729C100.601 106.875 102.359 108.27 104.469 107.781C108.986 106.736 112.884 104.607 115.733 100.838C117.65 98.2992 117.825 95.468 117.022 92.502C116.802 91.6957 116.541 90.9023 116.259 89.9777C117.374 89.632 118.46 89.2172 119.584 88.9606C125.419 87.6293 131.19 87.8613 136.813 89.9684C140.095 91.1988 142.747 93.2578 144.32 96.4969C146.241 100.457 145.179 104.214 141.447 106.717C141.098 106.95 140.7 107.134 140.412 107.426C140.319 107.533 140.25 107.658 140.209 107.793C140.168 107.928 140.155 108.071 140.172 108.211C140.196 108.355 140.577 108.536 140.796 108.533C142.023 108.524 143.018 107.88 143.973 107.22C146.366 105.564 148.112 103.336 148.488 100.403L148.562 100.182L148.472 98.2723C148.436 98.1621 148.499 98.0531 148.491 97.9699C147.982 93.6984 145.7 90.3856 142.382 87.7887C138.538 84.7828 133.999 83.5453 129.199 83.3496C125.306 83.182 121.418 83.7805 117.756 85.1109C116.705 85.4918 115.663 85.943 114.606 86.3684C114.464 86.1117 114.312 85.8656 114.186 85.6113C113.101 83.3895 111.786 81.266 111.496 78.7184C111.289 76.909 111.036 75.102 111.466 73.3125C111.88 71.591 112.419 69.8988 112.927 68.2008C113.188 67.3266 113.004 66.8367 112.17 66.443C111.878 66.3001 111.568 66.1984 111.248 66.1406C109.198 65.843 107.175 66.0129 105.189 66.5906C104.486 66.7957 103.975 67.1895 103.819 67.9676C103.73 68.4141 103.548 68.8418 103.422 69.2824C102.902 71.1141 102.534 72.9809 101.695 74.7258C99.593 79.1027 97.193 83.3145 94.7367 87.4957C94.4707 87.9469 94.1906 88.3898 93.8555 88.9371C92.993 87.1324 92.0731 85.5129 91.7942 83.6145C91.4789 81.4676 91.2305 79.3242 91.7649 77.1938C92.1621 75.6047 92.6813 74.0449 93.1594 72.477C93.3856 71.7316 93.2813 71.3402 92.6063 70.9477C92.2653 70.7496 91.8797 70.5738 91.4953 70.5164C89.3925 70.196 87.2439 70.3717 85.2211 71.0297C84.5848 71.2359 84.2508 71.6473 84.0563 72.3035C83.4844 74.2395 82.9969 76.2223 82.1942 78.0633C78.9434 85.5164 75.5988 92.9309 72.2578 100.344C71.5606 101.892 70.7438 103.386 69.9574 104.893C69.7582 105.275 69.4676 105.612 69.2192 105.97C69.0199 105.735 68.9426 105.573 68.9438 105.411C68.9496 104.459 68.836 103.478 69.0176 102.557C69.5753 99.7709 70.1918 96.9972 70.8668 94.2375C71.4176 91.957 72.0586 89.6977 72.6692 87.4324C72.8742 86.6742 72.8778 85.9652 72.3328 85.3277C71.4176 84.2602 69.5051 84.0258 68.3707 84.8484L67.8692 85.132L67.9664 84.3234C68.2055 82.5902 68.2535 80.8629 67.7778 79.1555C67.1848 77.0273 65.666 75.8027 63.4582 75.8707C62.4293 75.9023 61.3488 76.0781 60.3961 76.4531C56.3895 78.0234 53.3086 80.8043 50.686 84.15C50.4426 84.4605 50.1414 84.7208 49.7988 84.9164C46.4086 86.7961 43.0078 88.6523 39.6082 90.5156L35.8242 92.5887C34.8094 91.6207 33.8871 90.6164 32.8406 89.7645C29.6449 87.1582 26.3977 84.6164 23.1797 82.0395C20.3274 79.7555 17.5641 77.3766 15.45 74.352C13.8774 72.102 12.8637 69.6398 12.7664 66.8578C12.6434 63.3129 13.6488 60.0738 15.4535 57.0586C17.7621 53.2008 20.911 50.1047 24.3727 47.3004C28.0348 44.3355 31.9957 41.8184 36.1008 39.5203C41.8442 36.3059 47.7516 33.4605 54.0856 31.582C60.5801 29.6555 67.1695 28.5527 73.9664 29.3215C76.6383 29.6238 79.2328 30.2355 81.6152 31.5422C83.4399 32.5418 84.9363 33.8508 85.6324 35.8969C86.3192 37.9102 86.2981 39.9504 85.8223 41.9953C84.8555 46.1367 82.5879 49.5504 79.7344 52.6008C75.0539 57.6012 69.3445 61.0055 62.9168 63.2543C59.221 64.5487 55.3758 65.369 51.4735 65.6953C48.2754 65.9637 45.1442 65.6801 42.116 64.568C40.111 63.8309 38.3649 62.7035 36.961 61.0676C36.7102 60.7746 36.3891 60.457 35.9215 60.7313C35.4633 61.0008 35.3824 61.4367 35.536 61.8785C35.7926 62.6121 36.0293 63.3762 36.4289 64.0324C37.4332 65.6789 38.8981 66.8731 40.5106 67.8973C43.6078 69.8672 47.0695 70.5293 50.659 70.6828C56.1059 70.9184 61.4203 70.1051 66.6598 68.6438C74.1399 66.5578 80.6438 62.8734 85.8598 57.0609C90.2028 52.2211 93.3047 46.759 93.9692 40.1637C94.2938 36.9445 93.9481 33.791 92.441 30.8543C90.8063 27.6727 88.207 25.3066 85.0992 23.6766C80.5735 21.3035 75.6891 19.9219 70.6477 19.9219H65.5969C59.4914 19.9219 53.5887 21.6715 47.8512 23.7586C43.5082 25.3395 39.2496 27.2051 35.1153 29.2699C26.1117 33.7688 17.727 39.1934 10.8399 46.6523C7.40861 50.3684 4.50353 54.4688 2.83243 59.2969C2.32893 60.7386 1.89445 62.2036 1.53048 63.6867M34.1543 105.889C33.7641 111.115 31.3957 115.351 27.525 118.782C25.3477 120.711 22.8504 122.085 19.9418 122.568C18.8871 122.742 17.8078 122.784 16.7848 122.347C15.3258 121.724 14.9988 120.429 14.9707 119.05C14.9274 116.851 15.6973 114.864 16.7531 112.972C18.1313 110.507 20.1516 108.627 22.309 106.871C25.7074 104.105 29.3942 101.763 33.1699 99.5531L33.4547 99.4359C34.0383 101.592 34.316 103.721 34.1543 105.889ZM63.6363 83.1797C63.361 84.8484 63.0164 86.5184 62.5289 88.1356C60.8438 93.7336 58.6793 99.1582 56.3391 104.51C55.9067 105.5 55.2774 106.404 54.7301 107.343C54.6369 107.487 54.5254 107.618 54.3985 107.734C53.7211 108.403 53.0789 108.368 52.7367 107.493C52.3383 106.475 52.0934 105.387 51.8824 104.31C51.7406 103.587 51.7746 102.827 51.7301 102.087C51.7758 96.8203 53.3824 92.0344 56.1082 87.5789C57.232 85.7414 58.4555 83.9906 60.3246 82.8281C60.9063 82.467 61.5354 82.1886 62.1938 82.0008C63.1899 81.7207 63.8016 82.1813 63.6363 83.1797ZM83.7504 108.806L90.9797 100.365C91.2809 103.5 85.9524 109.758 83.7504 108.806ZM106.84 103.126C106.329 103.419 105.772 103.63 105.248 103.901C104.769 104.149 104.611 103.898 104.597 103.486C104.59 103.2 104.627 102.915 104.706 102.641C105.682 99.1981 107.479 96.259 110.152 93.8684L110.339 93.7723C111.611 97.3289 110.141 101.235 106.84 103.126Z" fill="#CB6699"/>
</svg>
